<svg xmlns="http://www.w3.org/2000/svg" width="256" height="256" viewBox="0 0 256 256">
  <defs>
    <linearGradient id="confettiIconBarrel" x1="0%" y1="0%" x2="100%" y2="100%">
      <stop offset="0%" stop-color="#f5d0fe"/>
      <stop offset="45%" stop-color="#c084fc"/>
      <stop offset="100%" stop-color="#7e22ce"/>
    </linearGradient>
    <linearGradient id="confettiIconGrip" x1="0%" y1="0%" x2="100%" y2="100%">
      <stop offset="0%" stop-color="#9a6a3d"/>
      <stop offset="100%" stop-color="#4b2e1a"/>
    </linearGradient>
    <filter id="confettiIconDrop" x="-25%" y="-25%" width="150%" height="160%">
      <feDropShadow dx="0" dy="12" stdDeviation="9" flood-color="#0b1120" flood-opacity="0.25"/>
    </filter>
  </defs>
  <g filter="url(#confettiIconDrop)" stroke="#152133" stroke-width="5" stroke-linecap="round" stroke-linejoin="round">
    <path d="M42 122 H168 C194 122 214 135 224 158 H80 C60 153 47 141 42 122 Z" fill="url(#confettiIconBarrel)"/>
    <path d="M163 122 L218 94 L231 113 L191 137 Z" fill="#e9d5ff"/>
    <path d="M87 153 C82 171 87 194 103 219 H130 C124 192 124 173 133 153 Z" fill="url(#confettiIconGrip)"/>
    <path d="M111 157 C124 162 132 172 134 184" fill="none" stroke="#ffe7bd" stroke-width="4" opacity="0.55"/>
    <rect x="41" y="101" width="52" height="22" rx="8" fill="#67e8f9"/>
    <circle cx="168" cy="145" r="9" fill="#fef3c7"/>
    <rect x="203" y="49" width="15" height="15" rx="3" fill="#f0abfc" stroke="none" transform="rotate(18 210.5 56.5)"/>
    <rect x="164" y="55" width="13" height="21" rx="3" fill="#67e8f9" stroke="none" transform="rotate(-28 170.5 65.5)"/>
    <circle cx="218" cy="76" r="8" fill="#fde047" stroke="none"/>
    <path d="M197 62 L187 43 M224 44 L232 28" stroke="#fb7185" stroke-width="4"/>
  </g>
</svg>
