<svg xmlns="http://www.w3.org/2000/svg" width="256" height="256" viewBox="0 0 256 256">
  <defs>
    <linearGradient id="pistolBarrel" x1="0%" y1="0%" x2="100%" y2="100%">
      <stop offset="0%" stop-color="#8de0ff"/>
      <stop offset="100%" stop-color="#3b82f6"/>
    </linearGradient>
    <filter id="pistolDrop" x="-25%" y="-25%" width="150%" height="170%">
      <feDropShadow dx="0" dy="12" stdDeviation="9" flood-color="#0b1120" flood-opacity="0.24"/>
    </filter>
  </defs>
  <g stroke="#152133" stroke-width="5" stroke-linecap="round" stroke-linejoin="round">
    <circle cx="60" cy="188" r="18" fill="#f59e0b" opacity="0.28" stroke="none"/>
    <g filter="url(#pistolDrop)" transform="translate(129 125) rotate(-14)">
      <path d="M-74 -16 H26 Q48 -16 62 -2 Q73 9 73 22 H-74 Z" fill="url(#pistolBarrel)"/>
      <path d="M53 -16 L77 -7 L77 8 L53 12 Z" fill="#e5eefc"/>
      <rect x="-24" y="-28" width="26" height="12" rx="6" fill="#ffe7a3"/>
      <rect x="4" y="22" width="18" height="36" rx="8" fill="#6b4120"/>
      <path d="M-19 22 H26 Q38 47 26 74 H2 Q17 48 8 22 Z" fill="#84512b"/>
      <path d="M-15 28 Q4 40 24 31" stroke="#ffe6b5"/>
      <path d="M-7 46 Q11 57 20 69" stroke="#ffe6b5"/>
      <path d="M-44 -16 V22" stroke="#eaf4ff"/>
      <circle cx="58" cy="2" r="5" fill="#fde68a"/>
      <path d="M-28 74 Q-39 87 -53 80 Q-41 66 -27 66 Z" fill="#ef4444"/>
      <path d="M-50 70 Q-39 56 -24 64" fill="none" stroke="#fff1cf"/>
    </g>
    <circle cx="198" cy="92" r="7" fill="#fff1cf" stroke="none"/>
    <path d="M198 71 V83 M186 78 L193 84 M210 78 L203 84" stroke="#fff1cf"/>
  </g>
</svg>
