<svg xmlns="http://www.w3.org/2000/svg" width="256" height="256" viewBox="0 0 256 256">
  <defs>
    <linearGradient id="duck-body" x1="15%" y1="10%" x2="85%" y2="90%">
      <stop offset="0%" stop-color="#fff2a7"/>
      <stop offset="46%" stop-color="#ffd35a"/>
      <stop offset="100%" stop-color="#e09b17"/>
    </linearGradient>
    <linearGradient id="duck-head" x1="20%" y1="10%" x2="85%" y2="100%">
      <stop offset="0%" stop-color="#fff6bf"/>
      <stop offset="60%" stop-color="#ffd359"/>
      <stop offset="100%" stop-color="#de9820"/>
    </linearGradient>
    <linearGradient id="duck-beak" x1="0%" y1="0%" x2="100%" y2="100%">
      <stop offset="0%" stop-color="#ffb16a"/>
      <stop offset="100%" stop-color="#d86017"/>
    </linearGradient>
    <linearGradient id="duck-metal" x1="0%" y1="0%" x2="0%" y2="100%">
      <stop offset="0%" stop-color="#d4dce1"/>
      <stop offset="100%" stop-color="#78818b"/>
    </linearGradient>
  </defs>
  <g fill="none" stroke="#1a1f26" stroke-width="5" stroke-linecap="round" stroke-linejoin="round">
    <ellipse cx="106" cy="150" rx="65" ry="46" fill="url(#duck-body)"/>
    <circle cx="156" cy="112" r="33" fill="url(#duck-head)"/>
    <path d="M168 82 C171 65 185 57 198 64 C208 70 210 82 203 91" stroke="#ff7f32"/>
    <path d="M152 122 C174 129 194 126 212 116 C207 136 190 149 165 149 Z" fill="url(#duck-beak)"/>
    <path d="M166 100 C171 103 174 108 175 114" stroke="#fff3d9" stroke-width="2.4" opacity="0.54"/>
    <circle cx="155" cy="108" r="5.5" fill="#1a1f26"/>
    <circle cx="151" cy="104" r="2" fill="#ffffff"/>
    <path d="M70 150 C92 145 113 145 133 149" stroke="#b36d10" stroke-width="3.2" opacity="0.48"/>
    <path d="M54 134 H109" stroke="#c4871e" stroke-width="3" stroke-dasharray="8 8"/>
    <path d="M38 154 H82" stroke="#876034" stroke-width="4"/>
    <path d="M84 181 C79 198 80 211 90 221 H107 C109 205 107 191 102 180" fill="#7b4c2a"/>
    <path d="M130 185 C124 199 125 212 133 221 H150 C153 206 151 193 146 183" fill="#7b4c2a"/>
    <path d="M95 108 C98 121 104 129 114 132" stroke="#fff6c5" stroke-width="2.8" opacity="0.38"/>
    <path d="M56 158 C74 177 99 187 132 187" stroke="#915d12" stroke-width="3" opacity="0.34"/>
    <ellipse cx="88" cy="126" rx="24" ry="12" fill="#fff5b9" opacity="0.26" stroke="none"/>
    <rect x="172" y="70" width="20" height="14" rx="5" fill="url(#duck-metal)"/>
    <path d="M192 77 H215" stroke="url(#duck-metal)" stroke-width="5"/>
    <circle cx="219" cy="77" r="9" fill="none" stroke="#c4ccd2" stroke-width="4"/>
  </g>
</svg>
