<svg xmlns="http://www.w3.org/2000/svg" width="256" height="256" viewBox="0 0 256 256">
  <defs>
    <linearGradient id="chickenCarryBody" x1="0%" y1="0%" x2="100%" y2="100%">
      <stop offset="0%" stop-color="#fef9c3"/>
      <stop offset="52%" stop-color="#fde047"/>
      <stop offset="100%" stop-color="#ca8a04"/>
    </linearGradient>
  </defs>
  <g fill="none" stroke="#1a1f26" stroke-width="5" stroke-linecap="round" stroke-linejoin="round">
    <path d="M38 135 C48 89 102 69 150 88 C204 109 216 158 184 188 C149 222 73 207 43 169 C35 159 33 147 38 135 Z" fill="url(#chickenCarryBody)"/>
    <path d="M150 88 C153 67 170 51 190 56 C210 62 217 86 204 103 C190 121 159 113 150 88 Z" fill="#fef08a"/>
    <path d="M199 78 L235 63 L222 95 Z" fill="#fb923c"/>
    <circle cx="187" cy="73" r="5" fill="#111827" stroke="none"/>
    <path d="M163 55 C156 42 163 31 177 40 C178 24 195 24 195 41 C211 32 219 47 204 59" fill="#ef4444"/>
    <path d="M69 151 C97 182 147 184 175 149" stroke="#fff7d6" stroke-width="7" opacity="0.45"/>
    <path d="M70 200 L50 230 M128 210 L121 239" stroke="#fb923c" stroke-width="8"/>
    <path d="M32 119 C16 108 15 87 32 76 C50 82 58 101 53 123" fill="#facc15"/>
  </g>
</svg>
