<svg xmlns="http://www.w3.org/2000/svg" width="256" height="256" viewBox="0 0 256 256">
  <defs>
    <linearGradient id="cookieCarryMortar" x1="0%" y1="0%" x2="100%" y2="100%">
      <stop offset="0%" stop-color="#78716c"/>
      <stop offset="52%" stop-color="#3f3f46"/>
      <stop offset="100%" stop-color="#18181b"/>
    </linearGradient>
    <radialGradient id="cookieCarryCookie" cx="40%" cy="32%" r="70%">
      <stop offset="0%" stop-color="#fed7aa"/>
      <stop offset="52%" stop-color="#d97706"/>
      <stop offset="100%" stop-color="#7c2d12"/>
    </radialGradient>
    <linearGradient id="cookieCarryWood" x1="0%" y1="0%" x2="100%" y2="100%">
      <stop offset="0%" stop-color="#8b5e34"/>
      <stop offset="100%" stop-color="#4b2f1b"/>
    </linearGradient>
  </defs>
  <g fill="none" stroke="#1a1f26" stroke-width="5" stroke-linecap="round" stroke-linejoin="round">
    <path d="M24 105 H142 C166 105 186 116 198 134 C186 152 166 163 142 163 H24 C14 153 10 143 10 134 C10 125 14 115 24 105 Z" fill="url(#cookieCarryMortar)"/>
    <path d="M142 105 L207 78 L224 104 L175 132 Z" fill="#a8a29e"/>
    <path d="M62 163 C56 185 63 209 82 235 H112 C103 204 105 181 121 163 Z" fill="url(#cookieCarryWood)"/>
    <circle cx="62" cy="134" r="13" fill="#fef3c7"/>
    <circle cx="200" cy="70" r="36" fill="url(#cookieCarryCookie)"/>
    <circle cx="188" cy="62" r="5" fill="#7c2d12" stroke="none"/>
    <circle cx="213" cy="82" r="6" fill="#7c2d12" stroke="none"/>
    <circle cx="211" cy="56" r="4" fill="#7c2d12" stroke="none"/>
    <path d="M165 64 C177 39 207 31 231 48" stroke="#fff7d6" stroke-width="5" opacity="0.45"/>
  </g>
</svg>
