<svg xmlns="http://www.w3.org/2000/svg" width="256" height="256" viewBox="0 0 256 256">
  <defs>
    <linearGradient id="bazooka-body" x1="0%" y1="0%" x2="100%" y2="100%">
      <stop offset="0%" stop-color="#ffa556"/>
      <stop offset="38%" stop-color="#de6b24"/>
      <stop offset="72%" stop-color="#8b3d16"/>
      <stop offset="100%" stop-color="#4d200f"/>
    </linearGradient>
    <linearGradient id="bazooka-metal" x1="0%" y1="0%" x2="100%" y2="100%">
      <stop offset="0%" stop-color="#cad2da"/>
      <stop offset="46%" stop-color="#7b8691"/>
      <stop offset="100%" stop-color="#2e3740"/>
    </linearGradient>
    <linearGradient id="bazooka-grip" x1="0%" y1="0%" x2="100%" y2="100%">
      <stop offset="0%" stop-color="#896040"/>
      <stop offset="100%" stop-color="#4f321d"/>
    </linearGradient>
    <linearGradient id="bazooka-sight" x1="0%" y1="0%" x2="0%" y2="100%">
      <stop offset="0%" stop-color="#fff3b9"/>
      <stop offset="100%" stop-color="#d8a63f"/>
    </linearGradient>
  </defs>
  <g fill="none" stroke="#1a1f26" stroke-width="5" stroke-linecap="round" stroke-linejoin="round">
    <path d="M30 110 H196 C219 110 234 119 238 136 C234 153 219 162 196 162 H30 C22 153 19 144 19 136 C19 127 22 118 30 110 Z" fill="url(#bazooka-body)"/>
    <path d="M196 110 H225 C237 116 245 125 247 136 C245 147 237 156 225 162 H196 Z" fill="#ff6e3f"/>
    <path d="M13 117 H30 V155 H13 C7 149 4 142 4 136 C4 129 7 122 13 117 Z" fill="url(#bazooka-metal)"/>
    <path d="M40 118 H175" stroke="#ffd59a" stroke-width="3" opacity="0.34"/>
    <path d="M49 154 H171" stroke="#2f120a" stroke-width="3.2" opacity="0.36"/>
    <rect x="85" y="117" width="39" height="38" rx="13" fill="#fff0a6"/>
    <circle cx="104.5" cy="136" r="8" fill="#ff8c3f"/>
    <path d="M124 119 H148 L157 98 H122 Z" fill="url(#bazooka-metal)"/>
    <rect x="132" y="90" width="21" height="16" rx="4" fill="url(#bazooka-sight)"/>
    <path d="M157 98 L171 106" stroke="#c7d0d7" stroke-width="4"/>
    <path d="M60 151 C53 170 54 191 66 214 L88 214 L92 166 C86 157 76 152 60 151 Z" fill="url(#bazooka-grip)"/>
    <path d="M69 161 C77 166 82 175 84 188" stroke="#c89666" stroke-width="3.1" opacity="0.58"/>
    <path d="M151 152 C145 168 148 185 162 204 L178 204 L178 167 C171 157 163 152 151 152 Z" fill="#444f5b"/>
    <path d="M179 111 L208 94 L210 116" fill="#ffd76b"/>
    <path d="M179 161 L208 178 L210 156" fill="#ffd76b"/>
    <path d="M208 122 C217 126 223 130 227 136 C223 142 217 146 208 150" stroke="#fff6cb" stroke-width="2.6" opacity="0.36"/>
    <path d="M91 128 H118" stroke="#8f5e1d" stroke-width="3"/>
    <path d="M92 143 H116" stroke="#8f5e1d" stroke-width="3"/>
    <circle cx="33" cy="136" r="9" fill="#a8b3bd"/>
  </g>
</svg>
