<svg xmlns="http://www.w3.org/2000/svg" width="256" height="256" viewBox="0 0 256 256">
  <defs><linearGradient id="miniMetal" x1="0" y1="0" x2="1" y2="1"><stop stop-color="#e2e8f0"/><stop offset=".45" stop-color="#64748b"/><stop offset="1" stop-color="#1e293b"/></linearGradient><linearGradient id="miniRed" x1="0" y1="0" x2="1" y2="1"><stop stop-color="#fda4af"/><stop offset="1" stop-color="#be123c"/></linearGradient></defs>
  <g stroke="#111827" stroke-width="6" stroke-linecap="round" stroke-linejoin="round">
    <path d="M24 105h118v59H24c-13-15-13-44 0-59Z" fill="url(#miniRed)"/>
    <circle cx="142" cy="134" r="43" fill="url(#miniMetal)"/>
    <circle cx="142" cy="134" r="15" fill="#0f172a"/>
    <path d="M153 105h87M153 119h94M153 134h96M153 149h94M153 163h87" stroke="url(#miniMetal)" stroke-width="9"/>
    <path d="M64 158c-5 21 0 40 15 57h26l5-57" fill="#78350f"/>
    <path d="M91 106V81h33l15 25" fill="#475569"/>
    <circle cx="43" cy="134" r="10" fill="#fef3c7"/>
  </g>
</svg>
