<svg xmlns="http://www.w3.org/2000/svg" width="256" height="256" viewBox="0 0 256 256">
  <defs>
    <linearGradient id="rainbow-shell" x1="0%" y1="0%" x2="100%" y2="100%">
      <stop offset="0%" stop-color="#fbfdff"/>
      <stop offset="58%" stop-color="#d8e4f4"/>
      <stop offset="100%" stop-color="#8c99af"/>
    </linearGradient>
    <linearGradient id="rainbow-spectrum" x1="0%" y1="0%" x2="100%" y2="0%">
      <stop offset="0%" stop-color="#59a7ff"/>
      <stop offset="20%" stop-color="#44e0cb"/>
      <stop offset="40%" stop-color="#9bf06c"/>
      <stop offset="60%" stop-color="#ffe95a"/>
      <stop offset="80%" stop-color="#ff9960"/>
      <stop offset="100%" stop-color="#ff78c7"/>
    </linearGradient>
    <linearGradient id="rainbow-grip" x1="0%" y1="0%" x2="100%" y2="100%">
      <stop offset="0%" stop-color="#7b4fdb"/>
      <stop offset="100%" stop-color="#342056"/>
    </linearGradient>
    <linearGradient id="rainbow-metal" x1="0%" y1="0%" x2="0%" y2="100%">
      <stop offset="0%" stop-color="#fff1b7"/>
      <stop offset="100%" stop-color="#cb9a35"/>
    </linearGradient>
  </defs>
  <g fill="none" stroke="#1a1f26" stroke-width="5" stroke-linecap="round" stroke-linejoin="round">
    <path d="M38 120 C61 98 98 87 170 90 L213 128 L170 166 C101 168 65 157 38 135 Z" fill="url(#rainbow-shell)"/>
    <path d="M38 120 H165 C176 120 188 123 201 128 C188 133 176 136 165 136 H38" stroke="url(#rainbow-spectrum)" stroke-width="10"/>
    <path d="M48 146 C84 152 122 152 166 145" stroke="url(#rainbow-spectrum)" stroke-width="9"/>
    <path d="M28 108 L41 120 L28 135 C19 134 12 132 7 128 C12 120 19 113 28 108 Z" fill="#5aa2ff"/>
    <path d="M20 101 C13 112 10 122 10 132 C10 142 13 151 20 161" stroke="#ff78c7" stroke-width="4"/>
    <path d="M213 128 H245" stroke="#ffe494" stroke-width="7"/>
    <path d="M119 139 C110 158 111 181 123 208 H145 L148 164 C143 149 134 141 119 139 Z" fill="url(#rainbow-grip)"/>
    <path d="M126 149 C134 153 140 161 142 173" stroke="#caadff" stroke-width="3" opacity="0.54"/>
    <circle cx="117" cy="127" r="21" fill="#ffffff"/>
    <path d="M117 109 L122 121 L136 121 L125 129 L130 142 L117 134 L104 142 L109 129 L98 121 L112 121 Z" fill="url(#rainbow-spectrum)" stroke="#6d3db5" stroke-width="3"/>
    <rect x="146" y="103" width="23" height="18" rx="5" fill="#9cc5ff"/>
    <path d="M168 107 H188" stroke="#d9ecff" stroke-width="3.1" opacity="0.58"/>
    <path d="M61 111 C91 104 126 104 173 108" stroke="#ffffff" stroke-width="2.5" opacity="0.42"/>
    <path d="M92 160 C118 164 144 163 171 158" stroke="#6a7b92" stroke-width="3" opacity="0.28"/>
    <circle cx="54" cy="129" r="8" fill="url(#rainbow-metal)"/>
  </g>
</svg>
