<svg xmlns="http://www.w3.org/2000/svg" width="256" height="256" viewBox="0 0 256 256">
  <defs>
    <radialGradient id="splitCarryBody" cx="36%" cy="30%" r="68%">
      <stop offset="0%" stop-color="#ffefc6"/>
      <stop offset="44%" stop-color="#fb923c"/>
      <stop offset="100%" stop-color="#9a3412"/>
    </radialGradient>
    <linearGradient id="splitCarryPin" x1="0%" y1="0%" x2="100%" y2="100%">
      <stop offset="0%" stop-color="#f8fafc"/>
      <stop offset="48%" stop-color="#94a3b8"/>
      <stop offset="100%" stop-color="#334155"/>
    </linearGradient>
  </defs>
  <g fill="none" stroke="#1a1f26" stroke-width="5" stroke-linecap="round" stroke-linejoin="round">
    <path d="M128 46 L139 81 H117 Z" fill="#f97316"/>
    <path d="M128 210 L117 175 H139 Z" fill="#f97316"/>
    <path d="M46 128 L81 117 V139 Z" fill="#f97316"/>
    <path d="M210 128 L175 139 V117 Z" fill="#f97316"/>
    <path d="M70 70 L103 87 L87 103 Z" fill="#f97316"/>
    <path d="M186 70 L169 103 L153 87 Z" fill="#f97316"/>
    <path d="M70 186 L87 153 L103 169 Z" fill="#f97316"/>
    <path d="M186 186 L153 169 L169 153 Z" fill="#f97316"/>
    <circle cx="128" cy="128" r="57" fill="url(#splitCarryBody)"/>
    <path d="M96 123 C117 109 143 109 162 124" stroke="#fff4ca" stroke-width="5" opacity="0.48"/>
    <path d="M116 70 C120 54 135 49 149 57" stroke="url(#splitCarryPin)" stroke-width="8"/>
    <path d="M148 57 L163 46" stroke="url(#splitCarryPin)" stroke-width="8"/>
    <circle cx="109" cy="105" r="7" fill="#fff7d6" stroke="none"/>
    <path d="M96 149 C118 165 145 164 162 148" stroke="#7c2d12" stroke-width="5" opacity="0.45"/>
  </g>
</svg>
