<svg xmlns="http://www.w3.org/2000/svg" width="128" height="128" viewBox="0 0 128 128">
  <defs>
    <linearGradient id="pack-main" x1="16%" y1="6%" x2="84%" y2="100%">
      <stop offset="0%" stop-color="#809d61"/>
      <stop offset="45%" stop-color="#556c3c"/>
      <stop offset="100%" stop-color="#324125"/>
    </linearGradient>
    <linearGradient id="pack-flap" x1="50%" y1="0%" x2="50%" y2="100%">
      <stop offset="0%" stop-color="#b3c88a"/>
      <stop offset="100%" stop-color="#728a4e"/>
    </linearGradient>
    <linearGradient id="pack-leather" x1="0%" y1="0%" x2="100%" y2="100%">
      <stop offset="0%" stop-color="#8b5a38"/>
      <stop offset="100%" stop-color="#51311d"/>
    </linearGradient>
    <linearGradient id="pack-metal" x1="0%" y1="0%" x2="0%" y2="100%">
      <stop offset="0%" stop-color="#d6ddd8"/>
      <stop offset="100%" stop-color="#76807b"/>
    </linearGradient>
  </defs>
  <g fill="none" stroke="#20261a" stroke-width="3.9" stroke-linecap="round" stroke-linejoin="round">
    <path d="M31 22 C32 15 39 11 49 11 H73 C85 11 93 18 93 30 V96 C93 106 85 114 74 114 H50 C39 114 31 106 31 96 Z" fill="url(#pack-main)"/>
    <path d="M29 29 C18 42 15 58 18 82" opacity="0.54"/>
    <path d="M94 28 C105 41 108 57 105 82" opacity="0.48"/>
    <path d="M38 22 C41 14 49 10 59 10 H72 C83 10 90 16 91 26" opacity="0.24"/>
    <path d="M35 26 H89 C87 47 75 58 62 59 C49 58 37 47 35 26 Z" fill="url(#pack-flap)"/>
    <rect x="40" y="55" width="44" height="27" rx="11" fill="#7d9556"/>
    <rect x="25" y="48" width="12" height="34" rx="6" fill="#61784a"/>
    <rect x="87" y="50" width="11" height="29" rx="5.5" fill="#607647"/>
    <path d="M49 29 V50" stroke="url(#pack-leather)" stroke-width="4.2"/>
    <path d="M75 29 V50" stroke="url(#pack-leather)" stroke-width="4.2"/>
    <rect x="45" y="47" width="8" height="8" rx="2.6" fill="url(#pack-metal)"/>
    <rect x="71" y="47" width="8" height="8" rx="2.6" fill="url(#pack-metal)"/>
    <path d="M52 63 H72" opacity="0.3"/>
    <path d="M46 73 H78" opacity="0.3"/>
    <path d="M37 88 H87" stroke="#b8cc95" stroke-width="2.2" opacity="0.28"/>
    <path d="M44 19 C51 23 57 24 65 23 C74 23 81 21 87 17" stroke="#dfe9b8" stroke-width="2.1" opacity="0.32"/>
    <circle cx="95" cy="66" r="4.5" fill="#d7dfd7" stroke="#6f786f" stroke-width="2"/>
    <path d="M97 62 L109 54" stroke="#6c7f56" stroke-width="3.2"/>
  </g>
</svg>
