<svg xmlns="http://www.w3.org/2000/svg" width="192" height="128" viewBox="0 0 192 128">
  <defs>
    <linearGradient id="helmet-shell" x1="18%" y1="6%" x2="86%" y2="88%">
      <stop offset="0%" stop-color="#8ea86a"/>
      <stop offset="36%" stop-color="#66794a"/>
      <stop offset="74%" stop-color="#495935"/>
      <stop offset="100%" stop-color="#2f3a23"/>
    </linearGradient>
    <linearGradient id="helmet-rim" x1="50%" y1="0%" x2="50%" y2="100%">
      <stop offset="0%" stop-color="#cad892"/>
      <stop offset="45%" stop-color="#899d58"/>
      <stop offset="100%" stop-color="#5a6b3c"/>
    </linearGradient>
    <radialGradient id="helmet-gloss" cx="33%" cy="20%" r="60%">
      <stop offset="0%" stop-color="#f6f8d6" stop-opacity="0.82"/>
      <stop offset="42%" stop-color="#d8e3a0" stop-opacity="0.28"/>
      <stop offset="100%" stop-color="#d8e3a0" stop-opacity="0"/>
    </radialGradient>
    <linearGradient id="strap-metal" x1="0%" y1="0%" x2="0%" y2="100%">
      <stop offset="0%" stop-color="#dbe3dd"/>
      <stop offset="100%" stop-color="#7f8b85"/>
    </linearGradient>
  </defs>
  <g fill="none" stroke="#20261a" stroke-width="4.4" stroke-linecap="round" stroke-linejoin="round">
    <path
      d="M28 77 C31 42 57 17 96 17 C136 17 162 42 165 77 C157 84 146 88 133 89 C127 64 112 45 92 46 C71 47 57 65 51 89 C43 88 35 84 28 77 Z"
      fill="url(#helmet-shell)"
    />
    <path
      d="M16 74 C21 81 33 87 50 90 H143 C160 87 171 81 176 74 C162 67 136 63 96 63 C56 63 31 67 16 74 Z"
      fill="url(#helmet-rim)"
    />
    <path d="M58 54 C70 40 86 32 111 32" opacity="0.34"/>
    <path d="M34 68 C47 49 64 41 83 40" opacity="0.22"/>
    <path d="M107 28 C122 30 136 37 146 50" opacity="0.24"/>
    <path d="M32 78 C46 85 68 88 96 88 C124 88 145 85 159 78" opacity="0.34"/>
    <ellipse cx="73" cy="34" rx="28" ry="15" fill="url(#helmet-gloss)" stroke="none"/>
    <path d="M53 66 C66 59 83 56 103 58" stroke="#c5d28a" stroke-width="2.8" opacity="0.42"/>
    <path d="M111 54 C120 58 128 63 134 71" stroke="#25301d" stroke-width="5.2" opacity="0.26"/>
    <path d="M61 42 C67 48 74 50 83 48 C78 41 71 39 61 42 Z" fill="#55673f" opacity="0.64" stroke="none"/>
    <path d="M99 39 C108 44 116 44 124 39 C116 33 108 32 99 39 Z" fill="#435333" opacity="0.7" stroke="none"/>
    <path d="M129 57 C137 58 143 63 146 72 C136 72 129 68 129 57 Z" fill="#596c43" opacity="0.66" stroke="none"/>
    <path d="M41 76 C44 87 47 94 50 97" opacity="0.4"/>
    <path d="M151 76 C148 87 145 94 141 97" opacity="0.4"/>
    <circle cx="42" cy="76" r="4.6" fill="url(#strap-metal)"/>
    <circle cx="150" cy="76" r="4.6" fill="url(#strap-metal)"/>
    <path d="M32 78 C37 95 49 103 65 107" opacity="0.32"/>
    <path d="M160 78 C155 95 143 103 127 107" opacity="0.22"/>
    <path d="M59 92 C72 98 84 100 96 100 C108 100 121 98 133 92" stroke="#f1f5c8" stroke-width="2.4" opacity="0.24"/>
  </g>
</svg>
