<svg xmlns="http://www.w3.org/2000/svg" width="256" height="256" viewBox="0 0 256 256">
  <defs>
    <linearGradient id="stoneFace" x1="0%" y1="0%" x2="100%" y2="100%">
      <stop offset="0%" stop-color="#d7dde6"/>
      <stop offset="100%" stop-color="#7b8697"/>
    </linearGradient>
    <linearGradient id="stoneShadow" x1="0%" y1="0%" x2="0%" y2="100%">
      <stop offset="0%" stop-color="#5f6776"/>
      <stop offset="100%" stop-color="#2b3240"/>
    </linearGradient>
    <filter id="graveDrop" x="-20%" y="-20%" width="140%" height="160%">
      <feDropShadow dx="0" dy="10" stdDeviation="8" flood-color="#0f172a" flood-opacity="0.24"/>
    </filter>
  </defs>
  <g stroke="#202836" stroke-width="4" stroke-linecap="round" stroke-linejoin="round">
    <ellipse cx="128" cy="230" rx="74" ry="18" fill="#0f172a" opacity="0.16" stroke="none"/>
    <g filter="url(#graveDrop)">
      <path d="M82 211 L82 94 Q82 45 128 45 Q174 45 174 94 L174 211 Z" fill="url(#stoneFace)"/>
      <path d="M146 57 Q174 69 174 102 L174 211 L152 211 Z" fill="url(#stoneShadow)" opacity="0.62"/>
      <path d="M96 103 H160" opacity="0.25"/>
      <path d="M104 124 H152" opacity="0.2"/>
      <path d="M128 81 V154"/>
      <path d="M104 106 H152"/>
      <path d="M90 210 Q128 188 166 210" fill="#6b7a4d" stroke="#425336"/>
      <path d="M87 212 Q128 198 169 212" fill="#7b5a34" stroke="#5a3f21"/>
      <path d="M110 196 C116 184 124 184 129 196 C124 207 116 207 110 196 Z" fill="#fb7185"/>
      <path d="M130 200 C136 188 144 188 149 200 C144 211 136 211 130 200 Z" fill="#fde047"/>
      <path d="M121 204 C126 194 132 194 136 204 C132 212 126 212 121 204 Z" fill="#38bdf8"/>
      <path d="M118 212 Q122 201 128 195 Q133 200 137 212" fill="none" stroke="#305c3d" stroke-width="3"/>
      <path d="M120 69 Q102 117 106 168" fill="none" opacity="0.16"/>
      <path d="M150 86 Q142 111 145 171" fill="none" opacity="0.12"/>
      <path d="M93 144 Q106 136 111 124" fill="none" opacity="0.18"/>
      <path d="M163 153 Q153 144 149 133" fill="none" opacity="0.18"/>
    </g>
  </g>
</svg>
