<svg xmlns="http://www.w3.org/2000/svg" width="256" height="256" viewBox="0 0 256 256">
  <defs>
    <linearGradient id="sprinterSuit" x1="0%" y1="0%" x2="100%" y2="100%">
      <stop offset="0%" stop-color="#1c3157"/>
      <stop offset="100%" stop-color="#0f1e35"/>
    </linearGradient>
    <linearGradient id="sprinterAccent" x1="0%" y1="0%" x2="100%" y2="100%">
      <stop offset="0%" stop-color="#8cf6ff"/>
      <stop offset="100%" stop-color="#22d3ee"/>
    </linearGradient>
    <filter id="sprinterDrop" x="-25%" y="-25%" width="150%" height="170%">
      <feDropShadow dx="0" dy="10" stdDeviation="8" flood-color="#0b1120" flood-opacity="0.28"/>
    </filter>
  </defs>
  <g stroke="#112033" stroke-width="4" stroke-linecap="round" stroke-linejoin="round">
    <ellipse cx="128" cy="228" rx="56" ry="14" fill="#0f172a" opacity="0.18" stroke="none"/>
    <g filter="url(#sprinterDrop)" transform="rotate(-7 128 144)">
      <rect x="106" y="154" width="24" height="58" rx="12" fill="#31476f" transform="rotate(8 118 183)"/>
      <rect x="132" y="152" width="24" height="60" rx="12" fill="#39547f" transform="rotate(-16 144 182)"/>
      <path d="M92 213 Q110 204 126 210 L122 228 Q103 234 87 223 Z" fill="#ffb347"/>
      <path d="M127 210 Q144 204 162 208 L165 226 Q148 234 128 228 Z" fill="#ff8f3d"/>
      <path d="M92 93 C102 76 154 72 168 90 L160 162 C145 173 112 174 97 163 Z" fill="url(#sprinterSuit)"/>
      <path d="M120 92 L143 92 L149 161 Q131 170 111 161 Z" fill="url(#sprinterAccent)" opacity="0.9"/>
      <path d="M106 118 H153" stroke="#8cf6ff"/>
      <path d="M87 104 Q70 122 76 149 Q92 150 104 140 L102 118 Z" fill="#243755"/>
      <path d="M168 104 Q184 122 177 147 Q160 151 149 140 L150 118 Z" fill="#243755"/>
      <circle cx="128" cy="65" r="29" fill="#ffd3a8"/>
      <path d="M102 64 Q128 33 156 58 L156 77 Q127 88 100 77 Z" fill="#13233f"/>
      <rect x="100" y="54" width="56" height="18" rx="9" fill="#63e8ff"/>
      <path d="M111 57 V69" opacity="0.35"/>
      <path d="M145 57 V69" opacity="0.35"/>
      <path d="M115 78 Q128 87 141 78" fill="none"/>
      <path d="M154 62 Q169 62 171 74" fill="none"/>
      <path d="M171 74 L165 83" fill="none"/>
      <path d="M105 90 Q129 99 153 90" fill="#ff6b6b"/>
      <circle cx="114" cy="70" r="3" fill="#112033"/>
      <circle cx="142" cy="70" r="3" fill="#112033"/>
      <path d="M107 149 H150" stroke="#ffe6a7"/>
      <circle cx="103" cy="149" r="5" fill="#22d3ee"/>
      <circle cx="153" cy="149" r="5" fill="#22d3ee"/>
    </g>
  </g>
</svg>
