<svg xmlns="http://www.w3.org/2000/svg" width="256" height="256" viewBox="0 0 256 256">
  <defs>
    <linearGradient id="duckBody" x1="0%" y1="0%" x2="100%" y2="100%">
      <stop offset="0%" stop-color="#ffe47a"/>
      <stop offset="100%" stop-color="#fbbf24"/>
    </linearGradient>
    <filter id="duckDrop" x="-25%" y="-25%" width="150%" height="170%">
      <feDropShadow dx="0" dy="12" stdDeviation="9" flood-color="#0b1120" flood-opacity="0.24"/>
    </filter>
  </defs>
  <g stroke="#172133" stroke-width="5" stroke-linecap="round" stroke-linejoin="round">
    <path d="M64 85 C80 57 116 51 138 68" fill="none" stroke="#ffe8a3"/>
    <g filter="url(#duckDrop)" transform="translate(127 134) rotate(-16)">
      <ellipse cx="-10" cy="18" rx="52" ry="40" fill="url(#duckBody)"/>
      <circle cx="30" cy="-10" r="25" fill="#ffe572"/>
      <path d="M28 -35 Q44 -54 60 -44" fill="none" stroke="#f97316"/>
      <path d="M38 -44 A12 12 0 1 1 54 -28" fill="none"/>
      <path d="M38 -3 Q58 6 72 -6 Q59 18 36 14 Z" fill="#fb923c"/>
      <circle cx="26" cy="-13" r="4" fill="#172133"/>
      <path d="M-40 13 H18" stroke="#f59e0b" stroke-dasharray="8 7"/>
      <path d="M-37 46 Q-14 64 10 44" fill="#facc15"/>
      <circle cx="-28" cy="18" r="8" fill="#fff4bf"/>
      <rect x="-59" y="50" width="18" height="10" rx="5" fill="#7b4a27"/>
      <rect x="-25" y="56" width="18" height="10" rx="5" fill="#7b4a27"/>
    </g>
    <circle cx="186" cy="75" r="9" fill="#fff1b7" stroke="none"/>
    <path d="M184 54 V66 M169 60 L178 67 M199 60 L190 67" stroke="#ffe8a3"/>
  </g>
</svg>
