<svg xmlns="http://www.w3.org/2000/svg" width="256" height="256" viewBox="0 0 256 256">
  <defs>
    <linearGradient id="chickenIconBody" x1="0%" y1="0%" x2="100%" y2="100%">
      <stop offset="0%" stop-color="#fef9c3"/>
      <stop offset="52%" stop-color="#fde047"/>
      <stop offset="100%" stop-color="#ca8a04"/>
    </linearGradient>
    <filter id="chickenIconDrop" x="-25%" y="-25%" width="150%" height="160%">
      <feDropShadow dx="0" dy="12" stdDeviation="9" flood-color="#0b1120" flood-opacity="0.25"/>
    </filter>
  </defs>
  <g filter="url(#chickenIconDrop)" stroke="#152133" stroke-width="5" stroke-linecap="round" stroke-linejoin="round">
    <path d="M65 137 C75 82 132 58 177 86 C222 114 219 178 170 198 C116 221 51 191 65 137 Z" fill="url(#chickenIconBody)"/>
    <path d="M172 84 C174 64 190 50 208 55 C226 61 232 83 221 99 C209 116 181 109 172 84 Z" fill="#fef08a"/>
    <path d="M212 76 L241 63 L232 91 Z" fill="#fb923c"/>
    <circle cx="203" cy="72" r="5" fill="#111827"/>
    <path d="M184 51 C177 39 184 29 196 37 C198 23 214 23 214 39 C228 31 237 44 224 55" fill="#ef4444"/>
    <path d="M86 155 C111 181 153 184 181 151" fill="none" stroke="#fff7d6" stroke-width="7" opacity="0.45"/>
    <path d="M87 198 L66 224 M136 208 L129 238" stroke="#fb923c" stroke-width="8"/>
    <path d="M55 121 C37 109 33 87 52 75 C70 82 79 101 73 124" fill="#facc15"/>
  </g>
</svg>
