<svg xmlns="http://www.w3.org/2000/svg" width="256" height="256" viewBox="0 0 256 256">
  <defs>
    <linearGradient id="bazookaBody" x1="0%" y1="0%" x2="100%" y2="0%">
      <stop offset="0%" stop-color="#ffb65e"/>
      <stop offset="100%" stop-color="#ff7a45"/>
    </linearGradient>
    <filter id="bazookaDrop" x="-25%" y="-25%" width="150%" height="170%">
      <feDropShadow dx="0" dy="12" stdDeviation="9" flood-color="#0b1120" flood-opacity="0.24"/>
    </filter>
  </defs>
  <g stroke="#152133" stroke-width="5" stroke-linecap="round" stroke-linejoin="round">
    <path d="M45 118 L68 93 L90 117 L79 149 L47 147 Z" fill="#ffe28a" opacity="0.65" stroke="none"/>
    <g filter="url(#bazookaDrop)" transform="translate(128 128) rotate(-24)">
      <rect x="-70" y="-20" width="120" height="40" rx="20" fill="url(#bazookaBody)"/>
      <path d="M50 -20 L92 0 L50 20 Z" fill="#ff5c40"/>
      <path d="M-84 -12 H-70 V12 H-84 L-96 0 Z" fill="#7b8aa0"/>
      <rect x="-14" y="-12" width="30" height="24" rx="12" fill="#fff0a8"/>
      <path d="M-8 -4 Q0 8 8 -4" fill="none"/>
      <circle cx="-10" cy="-8" r="3" fill="#152133"/>
      <circle cx="10" cy="-8" r="3" fill="#152133"/>
      <rect x="-28" y="18" width="18" height="28" rx="6" fill="#6b4120"/>
      <rect x="-55" y="-30" width="20" height="14" rx="6" fill="#ffe28a"/>
      <path d="M34 -16 L48 -28 L54 -4 Z" fill="#ffd166"/>
      <path d="M34 16 L48 28 L54 4 Z" fill="#ffd166"/>
    </g>
    <circle cx="196" cy="68" r="8" fill="#ffe28a" stroke="none"/>
    <path d="M197 46 V59 M184 52 L192 58 M210 52 L202 58" stroke="#ffe28a"/>
  </g>
</svg>
