<svg xmlns="http://www.w3.org/2000/svg" width="256" height="256" viewBox="0 0 256 256">
  <defs>
    <linearGradient id="rocketTrail" x1="0%" y1="0%" x2="100%" y2="100%">
      <stop offset="0%" stop-color="#60a5fa"/>
      <stop offset="25%" stop-color="#34d399"/>
      <stop offset="50%" stop-color="#fde047"/>
      <stop offset="75%" stop-color="#fb923c"/>
      <stop offset="100%" stop-color="#f472b6"/>
    </linearGradient>
    <filter id="rocketDrop" x="-25%" y="-25%" width="150%" height="170%">
      <feDropShadow dx="0" dy="12" stdDeviation="9" flood-color="#0b1120" flood-opacity="0.24"/>
    </filter>
  </defs>
  <g stroke="#152133" stroke-width="5" stroke-linecap="round" stroke-linejoin="round">
    <path d="M52 184 C72 150 102 127 126 120" fill="none" stroke="url(#rocketTrail)" stroke-width="16"/>
    <path d="M72 202 C91 171 118 149 143 141" fill="none" stroke="#ffffff" stroke-opacity="0.55" stroke-width="5"/>
    <g filter="url(#rocketDrop)" transform="translate(148 106) rotate(26)">
      <path d="M-18 -56 Q18 -42 30 -6 V29 Q20 52 0 66 Q-20 52 -30 29 V-6 Q-18 -42 -18 -56 Z" fill="#eef2ff"/>
      <path d="M-18 -56 Q0 -67 18 -56 L12 -32 H-12 Z" fill="#fb7185"/>
      <path d="M-21 -25 H21" stroke="#60a5fa"/>
      <path d="M-24 -2 H24" stroke="#34d399"/>
      <path d="M-24 21 H24" stroke="#fde047"/>
      <path d="M-18 45 H18" stroke="#fb923c"/>
      <circle cx="0" cy="-10" r="8" fill="#f472b6"/>
      <path d="M-7 -6 Q0 2 7 -6" fill="none" stroke="#152133" stroke-width="4"/>
      <path d="M-30 18 L-53 33 L-29 40 Z" fill="#60a5fa"/>
      <path d="M30 18 L53 33 L29 40 Z" fill="#f472b6"/>
      <path d="M-13 62 L0 88 L13 62 Z" fill="#fb923c"/>
    </g>
    <circle cx="200" cy="52" r="9" fill="#fdf2f8" stroke="none"/>
    <path d="M200 30 V43 M187 37 L194 43 M213 37 L206 43" stroke="#fdf2f8"/>
  </g>
</svg>
